<?xml version="1.0" encoding="UTF-8" standalone="no"?>
<svg
   xmlns:dc="http://purl.org/dc/elements/1.1/"
   xmlns:cc="http://creativecommons.org/ns#"
   xmlns:rdf="http://www.w3.org/1999/02/22-rdf-syntax-ns#"
   xmlns:svg="http://www.w3.org/2000/svg"
   xmlns="http://www.w3.org/2000/svg"
   xmlns:sodipodi="http://sodipodi.sourceforge.net/DTD/sodipodi-0.dtd"
   xmlns:inkscape="http://www.inkscape.org/namespaces/inkscape"
   version="1.1"
   x="0px"
   y="0px"
   width="32px"
   height="32px"
   viewBox="0 0 32 32"
   enable-background="new 0 0 32 32"
   xml:space="preserve"
   id="svg2"
   >

<metadata><rdf:RDF>
   <cc:Work rdf:about="">
   <dc:format>image/svg+xml</dc:format>
   <dc:type rdf:resource="http://purl.org/dc/dcmitype/StillImage" />
   <dc:title>DAIA Icons</dc:title>
   <dc:date>2009-04-27</dc:date>
   <dc:creator><cc:Agent><dc:title>Jakob Voss</dc:title></cc:Agent></dc:creator>
   <dc:rights><cc:Agent><dc:title>Creative Commons BY-SA</dc:title></cc:Agent></dc:rights>
   <dc:publisher><cc:Agent><dc:title>GBV - Gemeinsamer Bibliotheksverbund</dc:title></cc:Agent></dc:publisher>
   <dc:identifier>http://ws.gbv.de/daia/icons/</dc:identifier>
   <dc:source>http://ws.gbv.de/daia/icons/</dc:source>
   <dc:language>en</dc:language>
   <dc:subject>
     <rdf:Bag>
       <rdf:li>PICOL</rdf:li>
       <rdf:li>icon</rdf:li>
       <rdf:li>icons</rdf:li>
       <rdf:li>sign</rdf:li>
       <rdf:li>GUI</rdf:li>
       <rdf:li>vector</rdf:li>
       <rdf:li>interface</rdf:li>
       <rdf:li>DAIA</rdf:li>
     </rdf:Bag>
   </dc:subject>
   <dc:description>This icon is based on the PICOL icon set</dc:description>
   <dc:contributor>
       <cc:Agent><dc:title>Melih Bilgil (www.lonja.de), Christopher Adjei (www.boffer.net), Jakob Voß</dc:title></cc:Agent>
   </dc:contributor>
   <cc:license rdf:resource="http://creativecommons.org/licenses/by-sa/3.0/" /></cc:Work>
   <cc:License rdf:about="http://creativecommons.org/licenses/by-sa/3.0/">
       <cc:permits rdf:resource="http://creativecommons.org/ns#Reproduction" />
       <cc:permits rdf:resource="http://creativecommons.org/ns#Distribution" />
       <cc:requires rdf:resource="http://creativecommons.org/ns#Notice" />
       <cc:requires rdf:resource="http://creativecommons.org/ns#Attribution" />
       <cc:permits rdf:resource="http://creativecommons.org/ns#DerivativeWorks" />
       <cc:requires rdf:resource="http://creativecommons.org/ns#ShareAlike" /></cc:License>
   </rdf:RDF>
</metadata>
<g id="background">
    <rect fill="none" width="32" height="32"/>
</g>
<g id="home_1_">
    <path d="M32,8L16,0L0,8v4l2-1v21h28l-0.001-21L32,12V8z M28,30H4V10l12-6l12,6V30z"/>
</g>
<g
   id="daia_presentation"
   transform="translate(-4,-2)">
    <path d="M 20,20 C 22.209,20 24,18.209 24,16 C 24,13.791 22.209,12 20,12 C 17.791,12 16,13.791 16,16 C 16,18.209 17.791,20 20,20 z M 26,22 L 14,22 C 14,22 12,22 12,24 L 12,28 L 28,28 L 28,24 C 28,24 28,22 26,22 z"/>
</g>
</svg>