<?xml version="1.0" encoding="UTF-8" standalone="no"?>
<svg
   xmlns:dc="http://purl.org/dc/elements/1.1/"
   xmlns:cc="http://creativecommons.org/ns#"
   xmlns:rdf="http://www.w3.org/1999/02/22-rdf-syntax-ns#"
   xmlns:svg="http://www.w3.org/2000/svg"
   xmlns="http://www.w3.org/2000/svg"
   version="1.1"
   width="32"
   height="32"
   id="svg2"
>
  <metadata><rdf:RDF>
      <cc:Work rdf:about="">
        <dc:format>image/svg+xml</dc:format>
        <dc:type rdf:resource="http://purl.org/dc/dcmitype/StillImage" />
        <dc:creator>art designer at PLoS, modified by Wikipedia users Nina, Beao, and JakobVoss</dc:creator>
        <dc:description>Open Access logo, converted into svg, designed by PLoS. This version black on transparent background.</dc:description>
        <dc:source>http://commons.wikimedia.org/wiki/File:Open_Access_logo_PLoS_white.svg</dc:source>
        <dc:license rdf:resource="http://creativecommons.org/licenses/by-sa/3.0/" />
        <cc:license rdf:resource="http://creativecommons.org/licenses/by-sa/3.0/" />
        <cc:attributionName>art designer at PLoS, modified by Wikipedia users Nina, Beao, and JakobVoss</cc:attributionName>
        <cc:attributionURL>http://www.plos.org/</cc:attributionURL>
        <dc:title></dc:title>
      </cc:Work>
    </rdf:RDF>
  </metadata>
  <g transform="matrix(0.032,0,0,0.032,-16.917707,-12.118103)">
    <path
       d="m 767.6826,651.09852 0,35.72783 104.76422,0 0,-35.72783 c 0,-86.48025 70.36112,-156.8333 156.82928,-156.8333 86.4681,0 156.8252,70.35304 156.8252,156.8333 l 0,258.42696 104.7642,0 0,-258.42696 c 0,-144.2401 -117.3534,-261.59346 -261.5894,-261.59346 -144.23207,0 -261.59351,117.35336 -261.59351,261.59346"
       style="fill:#000000;fill-opacity:1;fill-rule:nonzero;stroke:none" />
    <path
       d="m 1116.1158,1060.3489 c 0,47.7233 -38.6924,86.4157 -86.4278,86.4157 -47.73131,0 -86.42772,-38.6924 -86.42772,-86.4157 0,-47.7515 38.69641,-86.44787 86.42772,-86.44787 47.7354,0 86.4278,38.69637 86.4278,86.44787"
       style="fill:#000000;fill-opacity:1;fill-rule:nonzero;stroke:none" />
    <path
       d="m 824.97395,1059.416 c 0,-112.32498 91.38747,-203.70437 203.70845,-203.70437 112.3168,0 203.6922,91.3794 203.6922,203.70437 0,112.3128 -91.3754,203.7084 -203.6922,203.7084 -112.32097,0 -203.70844,-91.3956 -203.70844,-203.7084 m -104.76018,0 c 0,170.0686 138.39184,308.4604 308.46862,308.4604 170.0808,0 308.4605,-138.3918 308.4605,-308.4604 0,-170.09295 -138.3797,-308.46857 -308.4606,-308.46857 -170.0767,0 -308.46854,138.37563 -308.46854,308.46857"
       style="fill:#000000;fill-opacity:1;fill-rule:nonzero;stroke:none" />
  </g>
</svg>
